<svg xmlns="http://www.w3.org/2000/svg" xmlns:xlink="http://www.w3.org/1999/xlink" width="100" height="20"><defs><path id="a" d="M.051 15.864h15.607V.012H.051z"/><path id="c" d="M10.437 9.599V.029H.093v9.57z"/></defs><g fill="none" fill-rule="evenodd"><path fill="#3D5AFE" fill-rule="nonzero" d="M58.947 13.5c-.302 0-.554.105-.761.312-.209.21-.312.465-.312.766v1.076c0 .302.103.557.312.765.207.21.459.313.76.313h4.29c.299 0 .555-.104.76-.313a1.04 1.04 0 00.312-.765v-1.076c0-.301-.104-.556-.312-.766a1.035 1.035 0 00-.76-.312h-4.29zm-1.073-5.381v1.076c0 .3.103.556.312.763.207.21.459.313.76.313h4.29c.299 0 .555-.103.76-.313.208-.207.312-.462.312-.763V8.12a1.04 1.04 0 00-.312-.765 1.033 1.033 0 00-.76-.313h-4.29c-.301 0-.553.106-.76.313a1.038 1.038 0 00-.312.765zm-2.146 11.843a3.09 3.09 0 01-1.253-.259 3.334 3.334 0 01-1.02-.69 3.287 3.287 0 01-.684-1.022 3.11 3.11 0 01-.258-1.259v-2.434c0-.487.1-.94.3-1.356.2-.417.463-.769.793-1.055a3.464 3.464 0 01-.793-1.078c-.2-.414-.3-.869-.3-1.356V7.04c0-.444.086-.864.258-1.26a3.26 3.26 0 01.684-1.021 3.288 3.288 0 011.02-.69c.393-.172.81-.258 1.253-.258h10.724c.443 0 .862.086 1.255.258.394.172.733.403 1.018.69.285.286.514.627.686 1.022.173.395.258.815.258 1.26v2.41c0 .488-.1.943-.3 1.357a3.47 3.47 0 01-.795 1.078c.33.286.594.638.795 1.055.2.416.3.869.3 1.356v2.434a3.1 3.1 0 01-.258 1.259 3.329 3.329 0 01-.686 1.023 3.286 3.286 0 01-1.018.69 3.094 3.094 0 01-1.255.258H55.728z"/><path fill="#BDBDBD" fill-rule="nonzero" d="M9.651 16.42c.198 0 .298-.102.298-.3v-1.794c0-.2-.1-.301-.298-.301H4.349a.83.83 0 00-.685.346c-.18.229-.268.484-.268.762 0 .34.098.638.298.897.197.259.476.39.834.39H9.65zM1.042 4.335h8.4c.754 0 1.394.165 1.922.493.525.33.952.754 1.28 1.271.327.52.567 1.096.715 1.735.15.64.223 1.276.223 1.915v9.869c0 .2-.098.299-.298.299H2.889c-.595 0-1.083-.183-1.459-.553a3.884 3.884 0 01-.878-1.302A6.525 6.525 0 01.12 16.57c-.08-.5-.119-.878-.119-1.137 0-.48.058-1.006.18-1.585a5.952 5.952 0 01.564-1.6 3.924 3.924 0 011.013-1.24c.417-.34.924-.51 1.52-.51h4.975c.515 0 .926-.124 1.235-.373.308-.25.462-.544.462-.884 0-.278-.1-.557-.298-.837-.2-.278-.458-.417-.775-.417H1.042c-.198 0-.298-.102-.298-.3v-3.05c0-.2.1-.3.298-.3zM26.69 16.268c.197 0 .297.102.297.301v3.05c0 .2-.1.299-.297.299h-5.6c-1.092 0-2.066-.194-2.92-.582a6.957 6.957 0 01-2.174-1.527 6.796 6.796 0 01-1.37-2.094 5.944 5.944 0 01-.475-2.286v-2.513c0-1.018.142-1.93.43-2.737a5.149 5.149 0 011.34-2.063c.607-.57 1.385-1.007 2.34-1.316.952-.311 2.085-.464 3.395-.464h5.034c.197 0 .297.1.297.3v3.05c0 .198-.1.3-.297.3h-5.632c-1.15 0-2.01.349-2.575 1.046-.565.698-.848 1.555-.848 2.57v1.286c0 .999.273 1.81.819 2.44.544.628 1.415.94 2.604.94h5.632zm7.08-.298c0 .2.1.298.297.298h2.504c.158.02.239.12.239.301v3.05c0 .2-.1.299-.3.299h-3.753c-.755 0-1.381-.23-1.875-.687-.498-.46-.745-.998-.745-1.616v-9.33c0-.2-.1-.299-.299-.299H28.26c-.199 0-.299-.102-.299-.3v-3.05c0-.2.1-.3.299-.3h1.578c.2 0 .299-.1.299-.3V.299c0-.198.098-.298.297-.298h3.039c.198 0 .296.1.296.298v3.739c0 .2.1.299.298.299h2.443c.2 0 .3.1.3.3v3.05c0 .198-.1.3-.3.3h-2.443c-.197 0-.298.1-.298.299v7.685z"/><g transform="translate(36.961 4.176)"><mask id="b" fill="#fff"><use xlink:href="#a"/></mask><path fill="#BDBDBD" fill-rule="nonzero" d="M10.475 14.158c-.416 1.136-1.3 1.706-2.65 1.706-1.331 0-2.206-.57-2.622-1.706L.051.25V.16C.05.063.1.011.2.011h3.425c.119 0 .198.021.237.06.042.04.081.12.12.24l3.455 9.482c.019.038.071.147.149.329.08.178.16.269.238.269.08 0 .16-.091.238-.27.08-.181.131-.29.15-.328L11.726.31a.68.68 0 01.119-.24c.04-.038.119-.058.238-.058h3.426c.098 0 .148.05.148.15V.25l-5.183 13.907z" mask="url(#b)"/></g><path fill="#BDBDBD" fill-rule="nonzero" d="M78.178 13.439a.624.624 0 00-.185-.456.617.617 0 00-.453-.185h-2.558c-.18 0-.33.061-.454.185a.624.624 0 00-.185.456v6.479h-3.197v-7.704c0-.265.05-.516.153-.751s.239-.44.408-.61a1.95 1.95 0 01.608-.411c.236-.103.486-.154.748-.154h5.602c.205 0 .403.032.594.096.193.064.364.152.517.263.163-.111.338-.2.526-.263.188-.064.388-.096.601-.096h5.587c.265 0 .514.05.75.154.232.102.436.239.606.41.17.172.307.376.41.61.102.236.154.487.154.752v7.704h-3.197v-6.479a.625.625 0 00-.186-.456.616.616 0 00-.453-.185h-2.56a.62.62 0 00-.453.185.624.624 0 00-.185.456v6.479h-3.198v-6.479z"/><g transform="translate(89.422 10.302)"><mask id="d" fill="#fff"><use xlink:href="#c"/></mask><path fill="#BDBDBD" fill-rule="nonzero" d="M2.759 2.527h5.029c.408 0 .739.292.739.65 0 .358-.331.65-.74.65H2.76v-1.3zm.743 3.513H8.26c.409 0 .764-.12 1.057-.358.27-.22.492-.492.656-.804.162-.304.28-.64.354-1 .073-.348.11-.676.11-.973 0-.168-.026-.405-.074-.702a3.947 3.947 0 00-.27-.927A2.555 2.555 0 009.528.43C9.253.164 8.904.029 8.483.029H2.64c-.487 0-.91.11-1.262.328-.337.213-.617.49-.83.823-.16.255-.455.728-.455 1.302v3.705c0 .393.047.787.136 1.17.092.393.243.76.45 1.092.211.332.49.61.83.824.35.216.774.326 1.26.326H9.55c.273 0 .456-.184.456-.459V7.72c0-.273-.183-.458-.456-.458H3.456c-.967 0-1.308-1.222.046-1.222z" mask="url(#d)"/></g></g></svg>